HIERARCHY
ROOT hip
{
  OFFSET 0 0 0
  CHANNELS 6 Xposition Yposition Zposition Zrotation Yrotation Xrotation
  JOINT abdomen
  {
    OFFSET 0 20.6881 -0.73152
    CHANNELS 3 Zrotation Xrotation Yrotation
    JOINT chest
    {
      OFFSET 0 11.7043 -0.48768
      CHANNELS 3 Zrotation Xrotation Yrotation
      JOINT neck
      {
        OFFSET 0 22.1894 -2.19456
        CHANNELS 3 Zrotation Xrotation Yrotation
        JOINT head
        {
          OFFSET -0.24384 7.07133 1.2192
          CHANNELS 3 Zrotation Xrotation Yrotation
          JOINT leftEye
          {
            OFFSET 4.14528 8.04674 8.04672
            CHANNELS 3 Zrotation Xrotation Yrotation
            End Site
            {
              OFFSET 1 0 0
            }
          }
          JOINT rightEye
          {
            OFFSET -3.6576 8.04674 8.04672
            CHANNELS 3 Zrotation Xrotation Yrotation
            End Site
            {
              OFFSET 1 0 0
            }
          }
        }
      }
      JOINT rCollar
      {
        OFFSET -2.68224 19.2634 -4.8768
        CHANNELS 3 Zrotation Xrotation Yrotation
        JOINT rShldr
        {
          OFFSET -8.77824 -1.95073 1.46304
          CHANNELS 3 Zrotation Xrotation Yrotation
          JOINT rForeArm
          {
            OFFSET -28.1742 -1.7115 0.48768
            CHANNELS 3 Zrotation Xrotation Yrotation
            JOINT rHand
            {
              OFFSET -22.5879 0.773209 7.07136
              CHANNELS 3 Zrotation Xrotation Yrotation
              JOINT rThumb1
              {
                OFFSET -1.2192 -0.487915 3.41376
                CHANNELS 3 Zrotation Xrotation Yrotation
                JOINT rThumb2
                {
                  OFFSET -3.37035 -0.52449 3.41376
                  CHANNELS 3 Zrotation Xrotation Yrotation
                  End Site
                  {
                    OFFSET -1.78271 -1.18214 1.43049
                  }
                }
              }
              JOINT rIndex1
              {
                OFFSET -7.75947 0.938293 5.60832
                CHANNELS 3 Zrotation Xrotation Yrotation
                JOINT rIndex2
                {
                  OFFSET -2.54057 -0.884171 1.56538
                  CHANNELS 3 Zrotation Xrotation Yrotation
                  End Site
                  {
                    OFFSET -1.62519 -0.234802 1.16502
                  }
                }
              }
              JOINT rMid1
              {
                OFFSET -8.24714 1.18213 3.41376
                CHANNELS 3 Zrotation Xrotation Yrotation
                JOINT rMid2
                {
                  OFFSET -3.10165 -0.590103 1.0647
                  CHANNELS 3 Zrotation Xrotation Yrotation
                  End Site
                  {
                    OFFSET -2.48547 -0.328903 0.83742
                  }
                }
              }
              JOINT rRing1
              {
                OFFSET -8.82822 0.546677 1.51678
                CHANNELS 3 Zrotation Xrotation Yrotation
                JOINT rRing2
                {
                  OFFSET -2.60934 -0.819778 -0.0198488
                  CHANNELS 3 Zrotation Xrotation Yrotation
                  End Site
                  {
                    OFFSET -2.33842 -0.294052 0.168128
                  }
                }
              }
              JOINT rPinky1
              {
                OFFSET -8.27202 -0.0477905 -0.4584
                CHANNELS 3 Zrotation Xrotation Yrotation
                JOINT rPinky2
                {
                  OFFSET -1.82734 -0.647385 -0.700984
                  CHANNELS 3 Zrotation Xrotation Yrotation
                  End Site
                  {
                    OFFSET -1.69225 -0.51767 -0.607171
                  }
                }
              }
            }
          }
        }
      }
      JOINT lCollar
      {
        OFFSET 2.68224 19.2634 -4.8768
        CHANNELS 3 Zrotation Xrotation Yrotation
        JOINT lShldr
        {
          OFFSET 8.77824 -1.95073 1.46304
          CHANNELS 3 Zrotation Xrotation Yrotation
          JOINT lForeArm
          {
            OFFSET 28.1742 -1.7115 0.48768
            CHANNELS 3 Zrotation Xrotation Yrotation
            JOINT lHand
            {
              OFFSET 22.5879 0.773209 7.07136
              CHANNELS 3 Zrotation Xrotation Yrotation
              JOINT lThumb1
              {
                OFFSET 1.2192 -0.487915 3.41376
                CHANNELS 3 Zrotation Xrotation Yrotation
                JOINT lThumb2
                {
                  OFFSET 3.37035 -0.52449 3.41376
                  CHANNELS 3 Zrotation Xrotation Yrotation
                  End Site
                  {
                    OFFSET 1.78271 -1.18214 1.43049
                  }
                }
              }
              JOINT lIndex1
              {
                OFFSET 7.75947 0.938293 5.60832
                CHANNELS 3 Zrotation Xrotation Yrotation
                JOINT lIndex2
                {
                  OFFSET 2.54057 -0.884171 1.56538
                  CHANNELS 3 Zrotation Xrotation Yrotation
                  End Site
                  {
                    OFFSET 1.62519 -0.234802 1.16502
                  }
                }
              }
              JOINT lMid1
              {
                OFFSET 8.24714 1.18213 3.41376
                CHANNELS 3 Zrotation Xrotation Yrotation
                JOINT lMid2
                {
                  OFFSET 3.10165 -0.590103 1.0647
                  CHANNELS 3 Zrotation Xrotation Yrotation
                  End Site
                  {
                    OFFSET 2.48547 -0.328903 0.83742
                  }
                }
              }
              JOINT lRing1
              {
                OFFSET 8.82822 0.546677 1.51678
                CHANNELS 3 Zrotation Xrotation Yrotation
                JOINT lRing2
                {
                  OFFSET 2.60934 -0.819778 -0.0198488
                  CHANNELS 3 Zrotation Xrotation Yrotation
                  End Site
                  {
                    OFFSET 2.33842 -0.294052 0.168128
                  }
                }
              }
              JOINT lPinky1
              {
                OFFSET 8.27202 -0.0477905 -0.4584
                CHANNELS 3 Zrotation Xrotation Yrotation
                JOINT lPinky2
                {
                  OFFSET 1.82734 -0.647385 -0.700984
                  CHANNELS 3 Zrotation Xrotation Yrotation
                  End Site
                  {
                    OFFSET 1.69225 -0.51767 -0.607171
                  }
                }
              }
            }
          }
        }
      }
    }
  }
  JOINT rButtock
  {
    OFFSET -8.77824 4.35084 1.2192
    CHANNELS 3 Zrotation Xrotation Yrotation
    JOINT rThigh
    {
      OFFSET 0 -1.70687 -2.19456
      CHANNELS 3 Zrotation Xrotation Yrotation
      JOINT rShin
      {
        OFFSET 0 -36.8199 0.73152
        CHANNELS 3 Zrotation Xrotation Yrotation
        JOINT rFoot
        {
          OFFSET 0.73152 -45.1104 -5.12064
          CHANNELS 3 Zrotation Xrotation Yrotation
          End Site
          {
            OFFSET -1.1221 -3.69964 12.103
          }
        }
      }
    }
  }
  JOINT lButtock
  {
    OFFSET 8.77824 4.35084 1.2192
    CHANNELS 3 Zrotation Xrotation Yrotation
    JOINT lThigh
    {
      OFFSET 0 -1.70687 -2.19456
      CHANNELS 3 Zrotation Xrotation Yrotation
      JOINT lShin
      {
        OFFSET 0 -36.8199 0.73152
        CHANNELS 3 Zrotation Xrotation Yrotation
        JOINT lFoot
        {
          OFFSET -0.73152 -45.1104 -5.12064
          CHANNELS 3 Zrotation Xrotation Yrotation
          End Site
          {
            OFFSET 1.1221 -3.69964 12.103
          }
        }
      }
    }
  }
}
MOTION
Frames:	6
Frame Time:	0.00833333
83.0144 -19.5473 0.345325 -427.67 -73.4518 -287.215 -0.898001 18.5358 7.23563 4.47706 -7.62986 3.08895 -16.5491 9.56309 -17.8026 34.8774 -21.8875 -28.3018 -0.0 0.0 0.0 -0.0 0.0 0.0 -5.8658e-13 -2.15682e-12 6.20705e-14 50.0642 -58.6956 33.5095 -14.3476 -7.23832 26.256 -8.24008 -60.1556 -14.1793 4.87966e-09 2.56996e-09 -1.56656e-09 8.4774e-09 3.74292e-09 -2.46951e-09 4.87966e-09 2.56996e-09 -1.56657e-09 7.73091 5.47488 0.417314 4.87966e-09 2.56996e-09 -1.56655e-09 2.90554 0.965183 0.102902 4.87967e-09 2.56995e-09 -1.56656e-09 10.2786 0.731801 0.0259123 4.87965e-09 2.56995e-09 -1.56655e-09 2.22167 -0.733487 -0.20892 -5.86984e-13 -2.15681e-12 6.18717e-14 -23.3319 -24.564 8.63486 10.0568 -4.17592 -17.908 0.236095 13.7062 -1.96428 -7.21235e-09 -1.35749e-08 6.46569e-10 -1.24575e-08 -2.30496e-08 1.21022e-09 -7.21236e-09 -1.35749e-08 6.46569e-10 -7.73091 5.47488 -0.417314 -7.21235e-09 -1.35749e-08 6.46565e-10 -2.90554 0.965183 -0.102902 -7.21235e-09 -1.35749e-08 6.46562e-10 -10.2786 0.731801 -0.0259123 -7.21235e-09 -1.35749e-08 6.4655e-10 -2.22167 -0.733487 0.20892 -2.03217e-16 0.0 -3.88251e-19 -10.1465 -34.157 0.367279 -0.0101366 47.6845 3.51109 18.7298 -17.3598 3.71032 2.03217e-16 0.0 3.88251e-19 55.8098 -27.9112 -3.4495 -1.50094 67.6257 -10.0171 -15.3263 -32.2011 9.93506
81.233 -20.1005 2.0015 -427.552 -74.8695 -287.18 -1.90471 18.3175 7.33271 4.28416 -7.72199 2.95848 -16.4345 9.79093 -17.7873 34.5088 -21.795 -28.391 -0.0 0.0 0.0 -0.0 0.0 0.0 -5.71772e-13 -2.2514e-12 2.44789e-14 50.7753 -59.5227 34.2966 -14.1968 -7.11557 25.9483 -7.84524 -59.3645 -13.7236 4.46143e-09 1.53925e-09 -1.12232e-09 7.73599e-09 2.01864e-09 -1.72528e-09 4.46144e-09 1.53925e-09 -1.12233e-09 7.73091 5.47488 0.417314 4.46143e-09 1.53924e-09 -1.12231e-09 2.90554 0.965183 0.102902 4.46144e-09 1.53924e-09 -1.12232e-09 10.2786 0.731801 0.0259123 4.46143e-09 1.53924e-09 -1.12231e-09 2.22167 -0.733487 -0.20892 -5.72135e-13 -2.25138e-12 2.42513e-14 -23.4842 -24.2392 8.26864 9.9835 -4.13099 -17.771 0.248357 14.0223 -2.01166 -6.68298e-09 -1.36581e-08 2.16373e-10 -1.15463e-08 -2.32321e-08 4.59649e-10 -6.68298e-09 -1.36581e-08 2.16375e-10 -7.73091 5.47488 -0.417314 -6.68298e-09 -1.36581e-08 2.16369e-10 -2.90554 0.965183 -0.102902 -6.68298e-09 -1.36581e-08 2.16367e-10 -10.2786 0.731801 -0.0259123 -6.68298e-09 -1.36581e-08 2.16354e-10 -2.22167 -0.733487 0.20892 -2.03217e-16 0.0 -3.88251e-19 -12.8666 -31.7781 1.4697 0.106362 46.3347 4.00012 19.8905 -18.5344 3.41517 2.03217e-16 0.0 3.88251e-19 56.9297 -29.1094 -3.50496 -1.47882 64.1851 -9.96182 -16.8424 -29.5452 9.0655
79.484 -20.7523 3.53018 -429.089 -75.9561 -285.79 -3.169 18.1288 7.38556 4.02182 -7.73134 2.81013 -16.2928 10.1051 -17.7435 34.1639 -21.7884 -28.4199 -0.0 0.0 0.0 -0.0 0.0 0.0 -4.62636e-13 -1.98836e-12 -1.51977e-14 51.7515 -60.5444 35.3426 -13.9983 -6.9545 25.5476 -7.35174 -58.2977 -13.1471 3.3266e-09 6.6096e-10 -6.32041e-10 5.75916e-09 6.3996e-10 -9.35522e-10 3.3266e-09 6.60958e-10 -6.32053e-10 7.73091 5.47488 0.417314 3.3266e-09 6.60953e-10 -6.32034e-10 2.90554 0.965183 0.102902 3.3266e-09 6.60955e-10 -6.3204e-10 10.2786 0.731801 0.0259123 3.32659e-09 6.60959e-10 -6.32032e-10 2.22167 -0.733487 -0.20892 -4.6288e-13 -1.98835e-12 -1.544e-14 -23.5652 -23.7259 7.8625 9.9336 -4.10081 -17.6774 0.25357 14.1579 -2.03201 -4.90373e-09 -9.98717e-09 6.82743e-12 -8.47343e-09 -1.69823e-08 7.50409e-11 -4.90373e-09 -9.98717e-09 6.83339e-12 -7.73091 5.47488 -0.417314 -4.90373e-09 -9.98717e-09 6.82389e-12 -2.90554 0.965183 -0.102902 -4.90373e-09 -9.98717e-09 6.82203e-12 -10.2786 0.731801 -0.0259123 -4.90373e-09 -9.98717e-09 6.81039e-12 -2.22167 -0.733487 0.20892 -2.03217e-16 0.0 -3.88251e-19 -15.8318 -29.5291 2.6041 0.163063 45.0737 4.44013 20.92 -19.6539 2.95876 2.03217e-16 0.0 3.88251e-19 57.2366 -29.3673 -3.83579 -1.33255 60.2203 -9.90724 -18.1812 -26.9164 8.0477
77.8896 -21.6401 5.0837 -433.211 -76.4984 -281.451 -4.51848 17.9746 7.48224 3.69897 -7.69046 2.65948 -16.1863 10.4036 -17.6947 33.8332 -21.7599 -28.4298 -0.0 0.0 0.0 -0.0 0.0 0.0 -3.17727e-13 -1.55362e-12 -4.68282e-14 52.8791 -61.6121 36.5893 -13.779 -6.77818 25.109 -6.85575 -57.1306 -12.5596 1.9696e-09 -4.58857e-11 -1.93707e-10 3.40232e-09 -4.1295e-10 -2.45093e-10 1.9696e-09 -4.58885e-11 -1.9372e-10 7.73091 5.47488 0.417314 1.9696e-09 -4.58947e-11 -1.937e-10 2.90554 0.965183 0.102902 1.9696e-09 -4.58895e-11 -1.93704e-10 10.2786 0.731801 0.0259123 1.96959e-09 -4.58843e-11 -1.93697e-10 2.22167 -0.733487 -0.20892 -3.17836e-13 -1.55361e-12 -4.70759e-14 -23.574 -23.2462 7.47639 9.90126 -4.08149 -17.6165 0.257664 14.2806 -2.05028 -2.73002e-09 -5.04407e-09 -4.49325e-11 -4.71738e-09 -8.55294e-09 -4.18904e-11 -2.73002e-09 -5.04407e-09 -4.49225e-11 -7.73091 5.47488 -0.417314 -2.73002e-09 -5.04408e-09 -4.49357e-11 -2.90554 0.965183 -0.102902 -2.73002e-09 -5.04408e-09 -4.49367e-11 -10.2786 0.731801 -0.0259123 -2.73002e-09 -5.04407e-09 -4.49472e-11 -2.22167 -0.733487 0.20892 -2.03217e-16 0.0 -3.88251e-19 -18.8761 -27.4422 3.61334 0.232759 44.156 4.91395 21.7936 -20.6869 2.41929 2.03217e-16 0.0 3.88251e-19 57.0193 -29.3172 -4.33916 -1.17661 56.2987 -9.70823 -19.4329 -24.5022 6.80133
76.5401 -22.7452 6.63687 -437.867 -76.61 -276.584 -5.77983 17.8601 7.71053 3.3242 -7.63191 2.52205 -16.1762 10.5841 -17.6638 33.5075 -21.6016 -28.462 -0.0 0.0 0.0 -0.0 0.0 0.0 -1.956e-13 -1.13307e-12 -6.02815e-14 54.012 -62.5802 37.9444 -13.5672 -6.61051 24.6873 -6.42695 -56.0408 -12.0451 8.84878e-10 -5.62274e-10 9.47106e-11 1.52088e-09 -1.15993e-09 2.0115e-10 8.84883e-10 -5.62276e-10 9.46978e-11 7.73091 5.47488 0.417314 8.84877e-10 -5.62283e-10 9.47169e-11 2.90554 0.965183 0.102902 8.84878e-10 -5.62276e-10 9.47153e-11 10.2786 0.731801 0.0259123 8.8487e-10 -5.6227e-10 9.47201e-11 2.22167 -0.733487 -0.20892 -1.95621e-13 -1.13307e-12 -6.05299e-14 -23.5184 -23.0238 7.16599 9.88055 -4.06911 -17.5776 0.267191 14.5578 -2.09163 -1.01727e-09 -1.31097e-09 -1.77157e-12 -1.75676e-09 -2.19694e-09 1.05682e-11 -1.01727e-09 -1.31098e-09 -1.75885e-12 -7.73091 5.47488 -0.417314 -1.01727e-09 -1.31099e-09 -1.77475e-12 -2.90554 0.965183 -0.102902 -1.01727e-09 -1.31099e-09 -1.77475e-12 -10.2786 0.731801 -0.0259123 -1.01727e-09 -1.31097e-09 -1.78429e-12 -2.22167 -0.733487 0.20892 -2.03217e-16 0.0 -3.88251e-19 -21.8068 -25.5524 4.35097 0.382977 43.8344 5.50662 22.4944 -21.6022 1.87761 2.03217e-16 0.0 3.88251e-19 56.5552 -29.5911 -4.91884 -1.06886 52.9826 -9.24004 -20.6947 -22.488 5.23828
75.4674 -23.7456 8.08872 -439.335 -77.9748 -275.408 -6.9378 17.7593 8.11397 2.8757 -7.54154 2.39539 -16.3247 10.6112 -17.6677 33.191 -21.1912 -28.5596 -0.0 0.0 0.0 -0.0 0.0 0.0 -9.00951e-14 -6.66459e-13 -4.08658e-14 55.1988 -63.4772 39.4736 -13.3632 -6.45224 24.281 -6.04588 -55.0119 -11.5833 9.40759e-11 -7.54606e-10 1.41676e-10 1.5574e-10 -1.36013e-09 2.47739e-10 9.40795e-11 -7.54607e-10 1.41665e-10 7.73091 5.47488 0.417314 9.40741e-11 -7.54614e-10 1.41682e-10 2.90554 0.965183 0.102902 9.40757e-11 -7.54608e-10 1.41681e-10 10.2786 0.731801 0.0259123 9.40687e-11 -7.546e-10 1.41686e-10 2.22167 -0.733487 -0.20892 -9.00901e-14 -6.6646e-13 -4.11077e-14 -23.4176 -23.2157 6.89813 9.86293 -4.05831 -17.545 0.290003 15.1781 -2.18468 1.83183e-10 9.80971e-10 2.40627e-10 3.21037e-10 1.68272e-09 4.12882e-10 1.8318e-10 9.80957e-10 2.40641e-10 -7.73091 5.47488 -0.417314 1.83184e-10 9.80956e-10 2.40623e-10 -2.90554 0.965183 -0.102902 1.8318e-10 9.80954e-10 2.40625e-10 -10.2786 0.731801 -0.0259123 1.83185e-10 9.8097e-10 2.40616e-10 -2.22167 -0.733487 0.20892 -2.03217e-16 0.0 -3.88251e-19 -24.6659 -23.9126 4.68631 0.54486 44.1353 6.3376 23.0726 -22.3157 1.36966 2.03217e-16 0.0 3.88251e-19 55.8453 -30.4189 -5.78121 -1.00029 50.2359 -8.35343 -22.1453 -20.922 3.10259
